<svg xmlns="http://www.w3.org/2000/svg" width="21" height="21" fill="none"><circle cx="10.5" cy="10.5" r="10.5" fill="#fff"/><path fill="#008A21" fill-rule="evenodd" d="M2.1667 10.5003c0-4.6 3.7333-8.3333 8.3333-8.3333s8.3334 3.7333 8.3334 8.3333S15.1 18.8337 10.5 18.8337s-8.3333-3.7334-8.3333-8.3334zm2.5 0l4.1666 4.1667 7.5001-7.5-1.175-1.1833-6.325 6.325-2.9917-2.9834-1.175 1.175z" clip-rule="evenodd"/><mask id="a" width="17" height="17" x="2" y="2" maskUnits="userSpaceOnUse"><path fill="#fff" fill-rule="evenodd" d="M2.1667 10.5003c0-4.6 3.7333-8.3333 8.3333-8.3333s8.3334 3.7333 8.3334 8.3333S15.1 18.8337 10.5 18.8337s-8.3333-3.7334-8.3333-8.3334zm2.5 0l4.1666 4.1667 7.5001-7.5-1.175-1.1833-6.325 6.325-2.9917-2.9834-1.175 1.175z" clip-rule="evenodd"/></mask><g mask="url(#a)"><path fill="#008A21" d="M.5.5h20v20H.5z"/></g></svg>